<svg width="369" height="107" viewBox="0 0 369 107" fill="none" xmlns="http://www.w3.org/2000/svg">
<g filter="url(#filter0_d_1_245)">
<rect x="21" y="14" width="311" height="49" rx="7" fill="#313341" shape-rendering="crispEdges"/>
<path d="M65.744 47H63.608L63.104 39.536C62.88 36.192 62.76 33.888 62.744 32.624L59.576 45.128H57.488L54.176 32.624C54.192 34.016 54.104 36.336 53.912 39.584L53.432 47H51.32L52.592 30.488H55.496L58.568 42.704L61.52 30.488H64.472L65.744 47ZM73.3985 34.064C75.0145 34.064 76.2705 34.632 77.1665 35.768C78.0625 36.904 78.5105 38.536 78.5105 40.664C78.5105 42.712 78.0545 44.336 77.1425 45.536C76.2305 46.72 74.9745 47.312 73.3745 47.312C71.7585 47.312 70.4945 46.728 69.5825 45.56C68.6865 44.392 68.2385 42.768 68.2385 40.688C68.2385 38.592 68.6945 36.968 69.6065 35.816C70.5185 34.648 71.7825 34.064 73.3985 34.064ZM73.3985 35.792C72.4545 35.792 71.7345 36.192 71.2385 36.992C70.7425 37.776 70.4945 39.008 70.4945 40.688C70.4945 43.968 71.4545 45.608 73.3745 45.608C75.2945 45.608 76.2545 43.96 76.2545 40.664C76.2545 38.984 76.0145 37.752 75.5345 36.968C75.0545 36.184 74.3425 35.792 73.3985 35.792ZM86.7513 35.168C88.0313 35.168 89.0553 35.68 89.8233 36.704C90.5913 37.712 90.9753 39.136 90.9753 40.976C90.9753 43.072 90.5273 44.656 89.6313 45.728C88.7513 46.784 87.5273 47.312 85.9593 47.312C84.3753 47.312 83.1273 46.728 82.2153 45.56C81.3193 44.392 80.8713 42.552 80.8713 40.04C80.8713 38.168 80.9993 36.656 81.2553 35.504C81.5113 34.336 81.9513 33.384 82.5753 32.648C83.1993 31.912 84.0953 31.312 85.2633 30.848C86.1433 30.512 86.8233 30.232 87.3033 30.008C87.7993 29.768 88.3113 29.472 88.8393 29.12L89.7273 30.56C88.9433 31.136 87.7673 31.736 86.1993 32.36C85.4793 32.664 84.9113 32.992 84.4953 33.344C84.0793 33.696 83.7433 34.2 83.4873 34.856C83.2473 35.512 83.0793 36.416 82.9833 37.568C83.3993 36.832 83.9193 36.248 84.5433 35.816C85.1673 35.384 85.9033 35.168 86.7513 35.168ZM85.9593 45.584C86.8233 45.584 87.4953 45.264 87.9753 44.624C88.4553 43.984 88.6953 42.8 88.6953 41.072C88.6953 39.568 88.4873 38.496 88.0713 37.856C87.6713 37.216 87.0713 36.896 86.2713 36.896C85.6153 36.896 85.0073 37.104 84.4473 37.52C83.9033 37.936 83.4633 38.552 83.1273 39.368V40.76C83.1273 43.976 84.0713 45.584 85.9593 45.584ZM103.085 47H101.021V40.616C101.021 39.208 101.133 37.904 101.357 36.704L96.4126 47H94.0846V34.376H96.1246V40.592C96.1246 41.92 96.0286 43.272 95.8366 44.648L100.733 34.376H103.085V47ZM115.447 34.376V47H113.287V36.08H109.831L109.495 40.712C109.367 42.376 109.207 43.608 109.015 44.408C108.839 45.192 108.551 45.792 108.151 46.208C107.751 46.608 107.119 46.96 106.255 47.264L105.727 45.608C106.175 45.416 106.503 45.176 106.711 44.888C106.919 44.584 107.071 44.128 107.167 43.52C107.263 42.912 107.359 41.912 107.455 40.52L107.887 34.376H115.447ZM122.855 38.504C126.167 38.504 127.823 39.904 127.823 42.704C127.823 44.144 127.399 45.224 126.551 45.944C125.703 46.648 124.567 47 123.143 47H119.303V34.376H121.463V38.504H122.855ZM122.999 45.392C123.847 45.392 124.487 45.184 124.919 44.768C125.367 44.336 125.591 43.64 125.591 42.68C125.591 41.784 125.383 41.128 124.967 40.712C124.567 40.28 123.879 40.064 122.903 40.064H121.463V45.392H122.999ZM137.157 47V41.384H132.573V47H130.413V34.376H132.573V39.68H137.157V34.376H139.317V47H137.157ZM146.57 38.504C149.866 38.504 151.514 39.904 151.514 42.704C151.514 44.144 151.09 45.224 150.242 45.944C149.394 46.648 148.266 47 146.858 47H143.21V34.376H145.37V38.504H146.57ZM153.122 34.376H155.282V47H153.122V34.376ZM146.714 45.392C147.562 45.392 148.202 45.184 148.634 44.768C149.082 44.352 149.306 43.656 149.306 42.68C149.306 41.784 149.106 41.128 148.706 40.712C148.306 40.28 147.61 40.064 146.618 40.064H145.37V45.392H146.714ZM168.027 40.304C168.027 40.64 168.011 41.016 167.979 41.432H160.635C160.699 42.904 160.995 43.968 161.523 44.624C162.051 45.264 162.771 45.584 163.683 45.584C164.259 45.584 164.771 45.496 165.219 45.32C165.683 45.144 166.163 44.856 166.659 44.456L167.619 45.728C166.435 46.784 165.091 47.312 163.587 47.312C161.939 47.312 160.659 46.744 159.747 45.608C158.851 44.456 158.403 42.848 158.403 40.784C158.403 38.72 158.835 37.088 159.699 35.888C160.563 34.672 161.763 34.064 163.299 34.064C164.819 34.064 165.987 34.608 166.803 35.696C167.619 36.768 168.027 38.304 168.027 40.304ZM165.939 39.656C165.939 37.016 165.067 35.696 163.323 35.696C162.523 35.696 161.891 36.032 161.427 36.704C160.963 37.36 160.699 38.432 160.635 39.92H165.939V39.656ZM183.35 47V36.08H178.838V47H176.678V34.376H185.51V47H183.35ZM194.853 34.064C196.229 34.064 197.261 34.632 197.949 35.768C198.653 36.904 199.005 38.528 199.005 40.64C199.005 42.688 198.613 44.312 197.829 45.512C197.061 46.712 195.981 47.312 194.589 47.312C193.341 47.312 192.333 46.808 191.565 45.8V51.8L189.405 52.064V34.376H191.301L191.421 36.08C192.285 34.736 193.429 34.064 194.853 34.064ZM194.085 45.584C195.861 45.584 196.749 43.944 196.749 40.664C196.749 38.952 196.541 37.712 196.125 36.944C195.725 36.16 195.109 35.768 194.277 35.768C193.717 35.768 193.221 35.936 192.789 36.272C192.357 36.608 191.949 37.064 191.565 37.64V44.024C192.221 45.064 193.061 45.584 194.085 45.584ZM211.178 47H209.114V40.616C209.114 39.208 209.226 37.904 209.45 36.704L204.506 47H202.178V34.376H204.218V40.592C204.218 41.92 204.122 43.272 203.93 44.648L208.826 34.376H211.178V47ZM223.541 34.376V47H221.381V36.08H217.925L217.589 40.712C217.461 42.376 217.301 43.608 217.109 44.408C216.933 45.192 216.645 45.792 216.245 46.208C215.845 46.608 215.213 46.96 214.349 47.264L213.821 45.608C214.269 45.416 214.597 45.176 214.805 44.888C215.013 44.584 215.165 44.128 215.261 43.52C215.357 42.912 215.453 41.912 215.549 40.52L215.981 34.376H223.541ZM231.789 34.064C233.405 34.064 234.661 34.632 235.557 35.768C236.453 36.904 236.901 38.536 236.901 40.664C236.901 42.712 236.445 44.336 235.533 45.536C234.621 46.72 233.365 47.312 231.765 47.312C230.149 47.312 228.885 46.728 227.973 45.56C227.077 44.392 226.629 42.768 226.629 40.688C226.629 38.592 227.085 36.968 227.997 35.816C228.909 34.648 230.173 34.064 231.789 34.064ZM231.789 35.792C230.845 35.792 230.125 36.192 229.629 36.992C229.133 37.776 228.885 39.008 228.885 40.688C228.885 43.968 229.845 45.608 231.765 45.608C233.685 45.608 234.645 43.96 234.645 40.664C234.645 38.984 234.405 37.752 233.925 36.968C233.445 36.184 232.733 35.792 231.789 35.792ZM252.563 34.376L249.779 40.256L252.947 47H250.787L248.075 41.168H246.539V47H244.571V41.168H243.059L240.323 47H238.163L241.355 40.256L238.547 34.376H240.587L243.035 39.608H244.571V34.376H246.539V39.608H248.099L250.547 34.376H252.563ZM263.816 40.304C263.816 40.64 263.8 41.016 263.768 41.432H256.424C256.488 42.904 256.784 43.968 257.312 44.624C257.84 45.264 258.56 45.584 259.472 45.584C260.048 45.584 260.56 45.496 261.008 45.32C261.472 45.144 261.952 44.856 262.448 44.456L263.408 45.728C262.224 46.784 260.88 47.312 259.376 47.312C257.728 47.312 256.448 46.744 255.536 45.608C254.64 44.456 254.192 42.848 254.192 40.784C254.192 38.72 254.624 37.088 255.488 35.888C256.352 34.672 257.552 34.064 259.088 34.064C260.608 34.064 261.776 34.608 262.592 35.696C263.408 36.768 263.816 38.304 263.816 40.304ZM261.728 39.656C261.728 37.016 260.856 35.696 259.112 35.696C258.312 35.696 257.68 36.032 257.216 36.704C256.752 37.36 256.488 38.432 256.424 39.92H261.728V39.656ZM273.563 47V41.384H268.979V47H266.819V34.376H268.979V39.68H273.563V34.376H275.723V47H273.563ZM288.616 47H286.552V40.616C286.552 39.208 286.664 37.904 286.888 36.704L281.944 47H279.616V34.376H281.656V40.592C281.656 41.92 281.56 43.272 281.368 44.648L286.264 34.376H288.616V47ZM300.523 34.376V47H298.363V42.08H295.963L293.562 47H291.307L294.019 41.576C292.627 40.952 291.931 39.84 291.931 38.24C291.931 36.992 292.339 36.04 293.155 35.384C293.987 34.712 295.179 34.376 296.73 34.376H300.523ZM298.363 40.544V35.96H296.683C295.835 35.96 295.203 36.144 294.787 36.512C294.371 36.864 294.163 37.432 294.163 38.216C294.163 39.016 294.355 39.608 294.739 39.992C295.139 40.36 295.747 40.544 296.562 40.544H298.363Z" fill="#EEF3FF"/>
</g>
<defs>
<filter id="filter0_d_1_245" x="0" y="0" width="369" height="107" filterUnits="userSpaceOnUse" color-interpolation-filters="sRGB">
<feFlood flood-opacity="0" result="BackgroundImageFix"/>
<feColorMatrix in="SourceAlpha" type="matrix" values="0 0 0 0 0 0 0 0 0 0 0 0 0 0 0 0 0 0 127 0" result="hardAlpha"/>
<feOffset dx="8" dy="15"/>
<feGaussianBlur stdDeviation="14.5"/>
<feComposite in2="hardAlpha" operator="out"/>
<feColorMatrix type="matrix" values="0 0 0 0 0.0896875 0 0 0 0 0.105917 0 0 0 0 0.170833 0 0 0 0.41 0"/>
<feBlend mode="normal" in2="BackgroundImageFix" result="effect1_dropShadow_1_245"/>
<feBlend mode="normal" in="SourceGraphic" in2="effect1_dropShadow_1_245" result="shape"/>
</filter>
</defs>
</svg>
