<svg width="258" height="107" viewBox="0 0 258 107" fill="none" xmlns="http://www.w3.org/2000/svg">
<g filter="url(#filter0_d_1_241)">
<rect x="21" y="14" width="200" height="49" rx="7" fill="#313341" shape-rendering="crispEdges"/>
<path d="M62.432 30.488V47H60.2V32.336H54.272V47H52.04V30.488H62.432ZM71.8529 34.064C73.2289 34.064 74.2609 34.632 74.9489 35.768C75.6529 36.904 76.0049 38.528 76.0049 40.64C76.0049 42.688 75.6129 44.312 74.8289 45.512C74.0609 46.712 72.9809 47.312 71.5889 47.312C70.3409 47.312 69.3329 46.808 68.5649 45.8V51.8L66.4049 52.064V34.376H68.3009L68.4209 36.08C69.2849 34.736 70.4289 34.064 71.8529 34.064ZM71.0849 45.584C72.8609 45.584 73.7489 43.944 73.7489 40.664C73.7489 38.952 73.5409 37.712 73.1249 36.944C72.7249 36.16 72.1089 35.768 71.2769 35.768C70.7169 35.768 70.2209 35.936 69.7889 36.272C69.3569 36.608 68.9489 37.064 68.5649 37.64V44.024C69.2209 45.064 70.0609 45.584 71.0849 45.584ZM83.5704 34.064C85.1864 34.064 86.4424 34.632 87.3384 35.768C88.2344 36.904 88.6824 38.536 88.6824 40.664C88.6824 42.712 88.2264 44.336 87.3144 45.536C86.4024 46.72 85.1464 47.312 83.5464 47.312C81.9304 47.312 80.6664 46.728 79.7544 45.56C78.8584 44.392 78.4104 42.768 78.4104 40.688C78.4104 38.592 78.8664 36.968 79.7784 35.816C80.6904 34.648 81.9544 34.064 83.5704 34.064ZM83.5704 35.792C82.6264 35.792 81.9064 36.192 81.4104 36.992C80.9144 37.776 80.6664 39.008 80.6664 40.688C80.6664 43.968 81.6264 45.608 83.5464 45.608C85.4664 45.608 86.4264 43.96 86.4264 40.664C86.4264 38.984 86.1864 37.752 85.7064 36.968C85.2264 36.184 84.5144 35.792 83.5704 35.792ZM100.817 45.296V50.624H99.2328L98.8968 47H91.5768L91.2408 50.624H89.6568V45.296H90.4248C90.7608 45.024 91.0248 44.728 91.2168 44.408C91.4248 44.072 91.6008 43.52 91.7448 42.752C91.9048 41.984 92.0328 40.888 92.1288 39.464L92.4648 34.376H99.6888V45.296H100.817ZM97.5768 36.008H94.3608L94.1688 39.248C94.0888 40.592 93.9688 41.648 93.8088 42.416C93.6488 43.184 93.4408 43.776 93.1848 44.192C92.9448 44.608 92.6168 44.976 92.2008 45.296H97.5768V36.008ZM109.695 40.136C111.647 40.36 112.623 41.384 112.623 43.208C112.623 44.472 112.191 45.424 111.327 46.064C110.463 46.688 109.279 47 107.775 47H103.671V34.496C105.175 34.208 106.471 34.064 107.559 34.064C108.967 34.064 110.063 34.368 110.847 34.976C111.647 35.584 112.047 36.416 112.047 37.472C112.047 38.88 111.263 39.768 109.695 40.136ZM107.559 35.648C107.015 35.648 106.439 35.688 105.831 35.768V39.56H107.871C109.247 39.56 109.935 38.912 109.935 37.616C109.935 36.944 109.743 36.448 109.359 36.128C108.975 35.808 108.375 35.648 107.559 35.648ZM107.775 45.416C109.535 45.416 110.415 44.664 110.415 43.16C110.415 42.376 110.215 41.824 109.815 41.504C109.415 41.168 108.799 41 107.967 41H105.831V45.416H107.775ZM124.741 47H122.677V40.616C122.677 39.208 122.789 37.904 123.013 36.704L118.069 47H115.741V34.376H117.781V40.592C117.781 41.92 117.685 43.272 117.493 44.648L122.389 34.376H124.741V47ZM141.376 34.376L138.592 40.256L141.76 47H139.6L136.888 41.168H135.352V47H133.384V41.168H131.872L129.136 47H126.976L130.168 40.256L127.36 34.376H129.4L131.848 39.608H133.384V34.376H135.352V39.608H136.912L139.359 34.376H141.376ZM152.628 40.304C152.628 40.64 152.612 41.016 152.58 41.432H145.236C145.3 42.904 145.596 43.968 146.124 44.624C146.652 45.264 147.372 45.584 148.284 45.584C148.86 45.584 149.372 45.496 149.82 45.32C150.284 45.144 150.764 44.856 151.26 44.456L152.22 45.728C151.036 46.784 149.692 47.312 148.188 47.312C146.54 47.312 145.26 46.744 144.348 45.608C143.452 44.456 143.004 42.848 143.004 40.784C143.004 38.72 143.436 37.088 144.3 35.888C145.164 34.672 146.364 34.064 147.9 34.064C149.42 34.064 150.588 34.608 151.404 35.696C152.22 36.768 152.628 38.304 152.628 40.304ZM150.54 39.656C150.54 37.016 149.668 35.696 147.924 35.696C147.124 35.696 146.492 36.032 146.028 36.704C145.564 37.36 145.3 38.432 145.236 39.92H150.54V39.656ZM162.376 47V41.384H157.792V47H155.632V34.376H157.792V39.68H162.376V34.376H164.536V47H162.376ZM177.428 47H175.364V40.616C175.364 39.208 175.476 37.904 175.7 36.704L170.756 47H168.428V34.376H170.468V40.592C170.468 41.92 170.372 43.272 170.18 44.648L175.076 34.376H177.428V47ZM190.175 40.304C190.175 40.64 190.159 41.016 190.127 41.432H182.783C182.847 42.904 183.143 43.968 183.671 44.624C184.199 45.264 184.919 45.584 185.831 45.584C186.407 45.584 186.919 45.496 187.367 45.32C187.831 45.144 188.311 44.856 188.807 44.456L189.767 45.728C188.583 46.784 187.239 47.312 185.735 47.312C184.087 47.312 182.807 46.744 181.895 45.608C180.999 44.456 180.551 42.848 180.551 40.784C180.551 38.72 180.983 37.088 181.847 35.888C182.711 34.672 183.911 34.064 185.447 34.064C186.967 34.064 188.135 34.608 188.951 35.696C189.767 36.768 190.175 38.304 190.175 40.304ZM188.087 39.656C188.087 37.016 187.215 35.696 185.471 35.696C184.671 35.696 184.039 36.032 183.575 36.704C183.111 37.36 182.847 38.432 182.783 39.92H188.087V39.656Z" fill="#EEF3FF"/>
</g>
<defs>
<filter id="filter0_d_1_241" x="0" y="0" width="258" height="107" filterUnits="userSpaceOnUse" color-interpolation-filters="sRGB">
<feFlood flood-opacity="0" result="BackgroundImageFix"/>
<feColorMatrix in="SourceAlpha" type="matrix" values="0 0 0 0 0 0 0 0 0 0 0 0 0 0 0 0 0 0 127 0" result="hardAlpha"/>
<feOffset dx="8" dy="15"/>
<feGaussianBlur stdDeviation="14.5"/>
<feComposite in2="hardAlpha" operator="out"/>
<feColorMatrix type="matrix" values="0 0 0 0 0.0896875 0 0 0 0 0.105917 0 0 0 0 0.170833 0 0 0 0.41 0"/>
<feBlend mode="normal" in2="BackgroundImageFix" result="effect1_dropShadow_1_241"/>
<feBlend mode="normal" in="SourceGraphic" in2="effect1_dropShadow_1_241" result="shape"/>
</filter>
</defs>
</svg>
