<svg width="232" height="107" viewBox="0 0 232 107" fill="none" xmlns="http://www.w3.org/2000/svg">
<g filter="url(#filter0_d_1_243)">
<rect x="21" y="14" width="174" height="49" rx="7" fill="#313341" shape-rendering="crispEdges"/>
<path d="M55.784 30.488C57.768 30.488 59.28 30.912 60.32 31.76C61.36 32.608 61.88 33.88 61.88 35.576C61.88 37.368 61.344 38.704 60.272 39.584C59.216 40.448 57.744 40.88 55.856 40.88H54.272V47H52.04V30.488H55.784ZM55.784 39.152C57.048 39.152 57.992 38.888 58.616 38.36C59.24 37.832 59.552 36.912 59.552 35.6C59.552 34.4 59.24 33.536 58.616 33.008C58.008 32.464 57.072 32.192 55.808 32.192H54.272V39.152H55.784ZM71.1363 44.12C71.1363 44.632 71.2083 45.016 71.3523 45.272C71.4963 45.512 71.7203 45.696 72.0243 45.824L71.5683 47.288C70.9443 47.192 70.4563 47 70.1043 46.712C69.7523 46.424 69.5043 45.984 69.3603 45.392C68.5443 46.672 67.4003 47.312 65.9283 47.312C64.8083 47.312 63.9203 46.968 63.2643 46.28C62.6083 45.576 62.2803 44.64 62.2803 43.472C62.2803 42.128 62.7203 41.104 63.6003 40.4C64.4803 39.696 65.7363 39.344 67.3683 39.344H69.0003V38.264C69.0003 37.384 68.8163 36.752 68.4483 36.368C68.0963 35.968 67.5123 35.768 66.6963 35.768C65.8163 35.768 64.7923 35.992 63.6243 36.44L63.0963 34.928C64.5043 34.352 65.8163 34.064 67.0323 34.064C69.7683 34.064 71.1363 35.432 71.1363 38.168V44.12ZM66.4323 45.68C67.5523 45.68 68.4083 45.024 69.0003 43.712V40.736H67.6083C65.5283 40.736 64.4883 41.608 64.4883 43.352C64.4883 44.104 64.6563 44.68 64.9923 45.08C65.3283 45.48 65.8083 45.68 66.4323 45.68ZM77.9579 34.064C79.0939 34.064 80.0459 34.376 80.8139 35C81.5979 35.608 81.9899 36.432 81.9899 37.472C81.9899 38.208 81.7819 38.8 81.3659 39.248C80.9659 39.696 80.3419 40.032 79.4939 40.256C80.5179 40.4 81.2859 40.72 81.7979 41.216C82.3099 41.696 82.5659 42.4 82.5659 43.328C82.5659 44.608 82.1259 45.592 81.2459 46.28C80.3659 46.968 79.2219 47.312 77.8139 47.312C76.1019 47.312 74.6299 46.776 73.3979 45.704L74.4779 44.456C74.9899 44.856 75.4859 45.152 75.9659 45.344C76.4619 45.52 77.0379 45.608 77.6939 45.608C79.4379 45.608 80.3099 44.832 80.3099 43.28C80.3099 42.528 80.0619 42 79.5659 41.696C79.0859 41.376 78.3659 41.216 77.4059 41.216H76.0139L76.1339 39.632H77.1899C78.0219 39.632 78.6619 39.464 79.1099 39.128C79.5579 38.776 79.7819 38.264 79.7819 37.592C79.7819 36.952 79.5899 36.48 79.2059 36.176C78.8219 35.872 78.3099 35.72 77.6699 35.72C77.1099 35.72 76.6139 35.8 76.1819 35.96C75.7659 36.12 75.3019 36.36 74.7899 36.68L73.7819 35.48C74.3739 35 75.0059 34.648 75.6779 34.424C76.3499 34.184 77.1099 34.064 77.9579 34.064ZM91.142 34.064C92.518 34.064 93.55 34.632 94.238 35.768C94.942 36.904 95.294 38.528 95.294 40.64C95.294 42.688 94.902 44.312 94.118 45.512C93.35 46.712 92.27 47.312 90.878 47.312C89.63 47.312 88.622 46.808 87.854 45.8V51.8L85.694 52.064V34.376H87.59L87.71 36.08C88.574 34.736 89.718 34.064 91.142 34.064ZM90.374 45.584C92.15 45.584 93.038 43.944 93.038 40.664C93.038 38.952 92.83 37.712 92.414 36.944C92.014 36.16 91.398 35.768 90.566 35.768C90.006 35.768 89.51 35.936 89.078 36.272C88.646 36.608 88.238 37.064 87.854 37.64V44.024C88.51 45.064 89.35 45.584 90.374 45.584ZM106.129 44.12C106.129 44.632 106.201 45.016 106.345 45.272C106.489 45.512 106.713 45.696 107.017 45.824L106.561 47.288C105.937 47.192 105.449 47 105.097 46.712C104.745 46.424 104.497 45.984 104.353 45.392C103.537 46.672 102.393 47.312 100.921 47.312C99.8005 47.312 98.9125 46.968 98.2565 46.28C97.6005 45.576 97.2725 44.64 97.2725 43.472C97.2725 42.128 97.7125 41.104 98.5925 40.4C99.4725 39.696 100.729 39.344 102.361 39.344H103.993V38.264C103.993 37.384 103.809 36.752 103.441 36.368C103.089 35.968 102.505 35.768 101.689 35.768C100.809 35.768 99.7845 35.992 98.6165 36.44L98.0885 34.928C99.4965 34.352 100.809 34.064 102.025 34.064C104.761 34.064 106.129 35.432 106.129 38.168V44.12ZM101.425 45.68C102.545 45.68 103.401 45.024 103.993 43.712V40.736H102.601C100.521 40.736 99.4805 41.608 99.4805 43.352C99.4805 44.104 99.6485 44.68 99.9845 45.08C100.321 45.48 100.801 45.68 101.425 45.68ZM115.134 35.168C116.414 35.168 117.438 35.68 118.206 36.704C118.974 37.712 119.358 39.136 119.358 40.976C119.358 43.072 118.91 44.656 118.014 45.728C117.134 46.784 115.91 47.312 114.342 47.312C112.758 47.312 111.51 46.728 110.598 45.56C109.702 44.392 109.254 42.552 109.254 40.04C109.254 38.168 109.382 36.656 109.638 35.504C109.894 34.336 110.334 33.384 110.958 32.648C111.582 31.912 112.478 31.312 113.646 30.848C114.526 30.512 115.206 30.232 115.686 30.008C116.182 29.768 116.694 29.472 117.222 29.12L118.11 30.56C117.326 31.136 116.15 31.736 114.582 32.36C113.862 32.664 113.294 32.992 112.878 33.344C112.462 33.696 112.126 34.2 111.87 34.856C111.63 35.512 111.462 36.416 111.366 37.568C111.782 36.832 112.302 36.248 112.926 35.816C113.55 35.384 114.286 35.168 115.134 35.168ZM114.342 45.584C115.206 45.584 115.878 45.264 116.358 44.624C116.838 43.984 117.078 42.8 117.078 41.072C117.078 39.568 116.87 38.496 116.454 37.856C116.054 37.216 115.454 36.896 114.654 36.896C113.998 36.896 113.39 37.104 112.83 37.52C112.286 37.936 111.846 38.552 111.51 39.368V40.76C111.51 43.976 112.454 45.584 114.342 45.584ZM126.859 34.064C128.475 34.064 129.731 34.632 130.627 35.768C131.523 36.904 131.971 38.536 131.971 40.664C131.971 42.712 131.515 44.336 130.603 45.536C129.691 46.72 128.435 47.312 126.835 47.312C125.219 47.312 123.955 46.728 123.043 45.56C122.147 44.392 121.699 42.768 121.699 40.688C121.699 38.592 122.155 36.968 123.067 35.816C123.979 34.648 125.243 34.064 126.859 34.064ZM126.859 35.792C125.915 35.792 125.195 36.192 124.699 36.992C124.203 37.776 123.955 39.008 123.955 40.688C123.955 43.968 124.915 45.608 126.835 45.608C128.755 45.608 129.715 43.96 129.715 40.664C129.715 38.984 129.475 37.752 128.995 36.968C128.515 36.184 127.803 35.792 126.859 35.792ZM142.314 34.376L142.05 36.104H138.546V47H136.386V36.104H132.714V34.376H142.314ZM153 34.376L149.64 40.208L153.408 47H151.104L147.864 41.12H146.448V47H144.288V34.376H146.448V39.56H147.912L150.864 34.376H153ZM163.058 44.12C163.058 44.632 163.13 45.016 163.274 45.272C163.418 45.512 163.642 45.696 163.946 45.824L163.49 47.288C162.866 47.192 162.378 47 162.026 46.712C161.674 46.424 161.426 45.984 161.282 45.392C160.466 46.672 159.322 47.312 157.85 47.312C156.73 47.312 155.842 46.968 155.186 46.28C154.53 45.576 154.202 44.64 154.202 43.472C154.202 42.128 154.642 41.104 155.522 40.4C156.402 39.696 157.658 39.344 159.29 39.344H160.922V38.264C160.922 37.384 160.738 36.752 160.37 36.368C160.018 35.968 159.434 35.768 158.618 35.768C157.738 35.768 156.714 35.992 155.546 36.44L155.018 34.928C156.426 34.352 157.738 34.064 158.954 34.064C161.69 34.064 163.058 35.432 163.058 38.168V44.12ZM158.354 45.68C159.474 45.68 160.33 45.024 160.922 43.712V40.736H159.53C157.45 40.736 156.41 41.608 156.41 43.352C156.41 44.104 156.578 44.68 156.914 45.08C157.25 45.48 157.73 45.68 158.354 45.68Z" fill="#EEF3FF"/>
</g>
<defs>
<filter id="filter0_d_1_243" x="0" y="0" width="232" height="107" filterUnits="userSpaceOnUse" color-interpolation-filters="sRGB">
<feFlood flood-opacity="0" result="BackgroundImageFix"/>
<feColorMatrix in="SourceAlpha" type="matrix" values="0 0 0 0 0 0 0 0 0 0 0 0 0 0 0 0 0 0 127 0" result="hardAlpha"/>
<feOffset dx="8" dy="15"/>
<feGaussianBlur stdDeviation="14.5"/>
<feComposite in2="hardAlpha" operator="out"/>
<feColorMatrix type="matrix" values="0 0 0 0 0.0896875 0 0 0 0 0.105917 0 0 0 0 0.170833 0 0 0 0.41 0"/>
<feBlend mode="normal" in2="BackgroundImageFix" result="effect1_dropShadow_1_243"/>
<feBlend mode="normal" in="SourceGraphic" in2="effect1_dropShadow_1_243" result="shape"/>
</filter>
</defs>
</svg>
