<svg width="308" height="107" viewBox="0 0 308 107" fill="none" xmlns="http://www.w3.org/2000/svg">
<g filter="url(#filter0_d_1_247)">
<rect x="21" y="14" width="250" height="49" rx="7" fill="#313341" shape-rendering="crispEdges"/>
<path d="M62.264 30.176C64.184 30.176 65.68 30.904 66.752 32.36C67.84 33.8 68.384 35.928 68.384 38.744C68.384 41.528 67.84 43.656 66.752 45.128C65.68 46.584 64.184 47.312 62.264 47.312C60.408 47.312 58.952 46.64 57.896 45.296C56.856 43.952 56.288 41.968 56.192 39.344H54.272V47H52.04V30.488H54.272V37.52H56.24C56.432 35.12 57.048 33.296 58.088 32.048C59.128 30.8 60.52 30.176 62.264 30.176ZM62.264 45.512C63.496 45.512 64.432 44.976 65.072 43.904C65.712 42.832 66.032 41.112 66.032 38.744C66.032 36.392 65.704 34.672 65.048 33.584C64.408 32.496 63.48 31.952 62.264 31.952C59.736 31.952 58.472 34.24 58.472 38.816C58.472 43.28 59.736 45.512 62.264 45.512ZM74.2314 34.064C75.3674 34.064 76.3194 34.376 77.0874 35C77.8714 35.608 78.2634 36.432 78.2634 37.472C78.2634 38.208 78.0554 38.8 77.6394 39.248C77.2394 39.696 76.6154 40.032 75.7674 40.256C76.7914 40.4 77.5594 40.72 78.0714 41.216C78.5834 41.696 78.8394 42.4 78.8394 43.328C78.8394 44.608 78.3994 45.592 77.5194 46.28C76.6394 46.968 75.4954 47.312 74.0874 47.312C72.3754 47.312 70.9034 46.776 69.6714 45.704L70.7514 44.456C71.2634 44.856 71.7594 45.152 72.2394 45.344C72.7354 45.52 73.3114 45.608 73.9674 45.608C75.7114 45.608 76.5834 44.832 76.5834 43.28C76.5834 42.528 76.3354 42 75.8394 41.696C75.3594 41.376 74.6394 41.216 73.6794 41.216H72.2874L72.4074 39.632H73.4634C74.2954 39.632 74.9354 39.464 75.3834 39.128C75.8314 38.776 76.0554 38.264 76.0554 37.592C76.0554 36.952 75.8634 36.48 75.4794 36.176C75.0954 35.872 74.5834 35.72 73.9434 35.72C73.3834 35.72 72.8874 35.8 72.4554 35.96C72.0394 36.12 71.5754 36.36 71.0634 36.68L70.0554 35.48C70.6474 35 71.2794 34.648 71.9514 34.424C72.6234 34.184 73.3834 34.064 74.2314 34.064ZM89.6051 44.12C89.6051 44.632 89.6771 45.016 89.8211 45.272C89.9651 45.512 90.1891 45.696 90.4931 45.824L90.0371 47.288C89.4131 47.192 88.9251 47 88.5731 46.712C88.2211 46.424 87.9731 45.984 87.8291 45.392C87.0131 46.672 85.8691 47.312 84.3971 47.312C83.2771 47.312 82.3891 46.968 81.7331 46.28C81.0771 45.576 80.7491 44.64 80.7491 43.472C80.7491 42.128 81.1891 41.104 82.0691 40.4C82.9491 39.696 84.2051 39.344 85.8371 39.344H87.4691V38.264C87.4691 37.384 87.2851 36.752 86.9171 36.368C86.5651 35.968 85.9811 35.768 85.1651 35.768C84.2851 35.768 83.2611 35.992 82.0931 36.44L81.5651 34.928C82.9731 34.352 84.2851 34.064 85.5011 34.064C88.2371 34.064 89.6051 35.432 89.6051 38.168V44.12ZM84.9011 45.68C86.0211 45.68 86.8771 45.024 87.4691 43.712V40.736H86.0771C83.9971 40.736 82.9571 41.608 82.9571 43.352C82.9571 44.104 83.1251 44.68 83.4611 45.08C83.7971 45.48 84.2771 45.68 84.9011 45.68ZM98.6107 35.168C99.8907 35.168 100.915 35.68 101.683 36.704C102.451 37.712 102.835 39.136 102.835 40.976C102.835 43.072 102.387 44.656 101.491 45.728C100.611 46.784 99.3867 47.312 97.8187 47.312C96.2347 47.312 94.9867 46.728 94.0747 45.56C93.1787 44.392 92.7307 42.552 92.7307 40.04C92.7307 38.168 92.8587 36.656 93.1147 35.504C93.3707 34.336 93.8107 33.384 94.4347 32.648C95.0587 31.912 95.9547 31.312 97.1227 30.848C98.0027 30.512 98.6827 30.232 99.1627 30.008C99.6587 29.768 100.171 29.472 100.699 29.12L101.587 30.56C100.803 31.136 99.6267 31.736 98.0587 32.36C97.3387 32.664 96.7707 32.992 96.3547 33.344C95.9387 33.696 95.6027 34.2 95.3467 34.856C95.1067 35.512 94.9387 36.416 94.8427 37.568C95.2587 36.832 95.7787 36.248 96.4027 35.816C97.0267 35.384 97.7627 35.168 98.6107 35.168ZM97.8187 45.584C98.6827 45.584 99.3547 45.264 99.8347 44.624C100.315 43.984 100.555 42.8 100.555 41.072C100.555 39.568 100.347 38.496 99.9307 37.856C99.5307 37.216 98.9307 36.896 98.1307 36.896C97.4747 36.896 96.8667 37.104 96.3067 37.52C95.7627 37.936 95.3227 38.552 94.9867 39.368V40.76C94.9867 43.976 95.9307 45.584 97.8187 45.584ZM114.944 47H112.88V40.616C112.88 39.208 112.992 37.904 113.216 36.704L108.272 47H105.944V34.376H107.984V40.592C107.984 41.92 107.888 43.272 107.696 44.648L112.592 34.376H114.944V47ZM127.307 34.376V47H125.147V36.08H121.691L121.355 40.712C121.227 42.376 121.067 43.608 120.875 44.408C120.699 45.192 120.411 45.792 120.011 46.208C119.611 46.608 118.979 46.96 118.115 47.264L117.587 45.608C118.035 45.416 118.363 45.176 118.571 44.888C118.779 44.584 118.931 44.128 119.027 43.52C119.123 42.912 119.219 41.912 119.315 40.52L119.747 34.376H127.307ZM140.163 47H138.099V40.616C138.099 39.208 138.211 37.904 138.435 36.704L133.491 47H131.163V34.376H133.203V40.592C133.203 41.92 133.107 43.272 132.915 44.648L137.811 34.376H140.163V47ZM151.829 34.376L151.565 36.104H148.061V47H145.901V36.104H142.229V34.376H151.829ZM162.803 47H160.739V40.616C160.739 39.208 160.851 37.904 161.075 36.704L156.131 47H153.803V34.376H155.843V40.592C155.843 41.92 155.747 43.272 155.555 44.648L160.451 34.376H162.803V47ZM171.718 40.376V38.6H177.934V40.376H171.718ZM194.722 44.12C194.722 44.632 194.794 45.016 194.938 45.272C195.082 45.512 195.306 45.696 195.61 45.824L195.154 47.288C194.53 47.192 194.042 47 193.69 46.712C193.338 46.424 193.09 45.984 192.946 45.392C192.13 46.672 190.986 47.312 189.514 47.312C188.394 47.312 187.506 46.968 186.85 46.28C186.194 45.576 185.866 44.64 185.866 43.472C185.866 42.128 186.306 41.104 187.186 40.4C188.066 39.696 189.322 39.344 190.954 39.344H192.586V38.264C192.586 37.384 192.402 36.752 192.034 36.368C191.682 35.968 191.098 35.768 190.282 35.768C189.402 35.768 188.378 35.992 187.21 36.44L186.682 34.928C188.09 34.352 189.402 34.064 190.618 34.064C193.354 34.064 194.722 35.432 194.722 38.168V44.12ZM190.018 45.68C191.138 45.68 191.994 45.024 192.586 43.712V40.736H191.194C189.114 40.736 188.074 41.608 188.074 43.352C188.074 44.104 188.242 44.68 188.578 45.08C188.914 45.48 189.394 45.68 190.018 45.68ZM203.016 47.048C202.568 48.536 201.936 49.688 201.12 50.504C200.304 51.32 199.144 51.84 197.64 52.064L197.4 50.456C198.152 50.296 198.752 50.08 199.2 49.808C199.648 49.536 200.008 49.184 200.28 48.752C200.552 48.32 200.816 47.736 201.072 47H200.28L196.536 34.376H198.768L201.696 45.488L204.624 34.376H206.832L203.016 47.048ZM217.957 45.296V50.624H216.373L216.037 47H208.717L208.381 50.624H206.797V45.296H207.565C207.901 45.024 208.165 44.728 208.357 44.408C208.565 44.072 208.741 43.52 208.885 42.752C209.045 41.984 209.173 40.888 209.269 39.464L209.605 34.376H216.829V45.296H217.957ZM214.717 36.008H211.501L211.309 39.248C211.229 40.592 211.109 41.648 210.949 42.416C210.789 43.184 210.581 43.776 210.325 44.192C210.085 44.608 209.757 44.976 209.341 45.296H214.717V36.008ZM229.811 47H227.747V40.616C227.747 39.208 227.859 37.904 228.083 36.704L223.139 47H220.811V34.376H222.851V40.592C222.851 41.92 222.755 43.272 222.563 44.648L227.459 34.376H229.811V47ZM241.478 34.376L241.214 36.104H237.71V47H235.55V36.104H231.878V34.376H241.478Z" fill="#EEF3FF"/>
</g>
<defs>
<filter id="filter0_d_1_247" x="0" y="0" width="308" height="107" filterUnits="userSpaceOnUse" color-interpolation-filters="sRGB">
<feFlood flood-opacity="0" result="BackgroundImageFix"/>
<feColorMatrix in="SourceAlpha" type="matrix" values="0 0 0 0 0 0 0 0 0 0 0 0 0 0 0 0 0 0 127 0" result="hardAlpha"/>
<feOffset dx="8" dy="15"/>
<feGaussianBlur stdDeviation="14.5"/>
<feComposite in2="hardAlpha" operator="out"/>
<feColorMatrix type="matrix" values="0 0 0 0 0.0896875 0 0 0 0 0.105917 0 0 0 0 0.170833 0 0 0 0.41 0"/>
<feBlend mode="normal" in2="BackgroundImageFix" result="effect1_dropShadow_1_247"/>
<feBlend mode="normal" in="SourceGraphic" in2="effect1_dropShadow_1_247" result="shape"/>
</filter>
</defs>
</svg>
